<?xml version="1.0" encoding="UTF-8"?>
<svg width="400px" height="400px" viewBox="0 0 400 400" version="1.1" xmlns="http://www.w3.org/2000/svg" xmlns:xlink="http://www.w3.org/1999/xlink">
    <!-- Generator: Sketch 50 (54983) - http://www.bohemiancoding.com/sketch -->
    <title>Artboard</title>
    <desc>Created with Sketch.</desc>
    <defs></defs>
    <g id="Artboard" stroke="none" stroke-width="1" fill="none" fill-rule="evenodd">
        <g id="Group-2" transform="translate(72.000000, 37.000000)">
            <g id="Group" transform="translate(24.000000, 0.000000)">
                <path d="M119.672746,124.420543 C119.672746,124.420543 82.0083226,135.388018 71.3079767,153.30127 C60.6076307,171.214523 55.5302455,182.999963 64.9579901,182.999963 C74.3857347,182.999963 134.895934,182.755313 146.985144,182.999963 C147.593227,183.012268 152.593508,179.984068 138.179923,173.021083 C132.758105,170.401885 122.346756,168.479766 114.39659,163.964663 C112.423942,162.844346 113.139521,160.904881 113.307084,158.659927 C113.428534,157.032775 113.774223,154.13281 115.192502,153.30127 C124.903843,147.607492 136.086374,141.296445 145.975917,131.344824 C147.998456,129.30959 157.430308,123.513913 161.364232,122.068558 C177.248195,116.23266 193.394134,110.996904 209.80709,106.835139 C216.605317,105.11134 223.777905,105.460033 230.725597,104.480883 C232.11078,104.285667 227.869006,104.874147 226.528133,104.478613 L223.449993,102.124357 C220.196732,101.164702 216.777422,100.563996 213.382962,100.601015 C204.987646,100.692573 196.524009,100.990916 188.269285,102.50803 C175.200492,104.90991 162.278361,108.229645 149.643446,112.315537 C147.871454,112.888565 146.48813,113.925959 146.164001,112.108944 C144.91534,105.109174 147.611439,97.8812767 146.985144,90.8003194 C146.382683,83.988833 155.814349,65.7565472 155.864041,59.2390228 C155.986065,43.2344054 160.340141,27.191912 158.47656,11.2934829 C158.149615,8.50427517 152.558744,8.54001649 150.081633,9.90862664 C147.746637,11.1987182 147.884211,14.7932696 147.42324,17.400472 C146.430085,23.017643 145.702712,28.725023 145.746548,34.4273932 C146.01566,69.4349801 135.590983,74.4276184 131.688486,110.426684 C131.284436,114.153892 126.088144,108.458216 124.83951,106.835139 C116.678906,96.2273229 108.331664,85.7461475 100.647899,74.7950135 C99.3492297,72.9441112 98.4327101,70.7780515 97.9895051,68.5677008 C97.2520913,64.8900727 97.8304938,61.0387295 97.1500124,57.3503651 C96.8386689,55.6628121 96.7812332,52.7463394 95.0512806,52.6418538 C89.9205779,52.3319701 85.2202407,56.5422245 80.0849147,56.3196688 C74.7501346,56.0884692 67.4995265,46.7297877 64.8777108,51.3341863 L61.3798245,52.5601246 C60.1310483,54.753209 64.1223866,60.4921972 64.9579901,61.2779083 C70.9752173,66.9358574 77.954903,71.5339749 83.9497924,77.2151065 C102.52903,94.8219529 99.7227714,90.049615 105.418786,101.325227 C114.921426,116.722104 119.672746,124.420543 119.672746,124.420543 Z" id="Path-2" fill="#4D3E13"></path>
                <path d="M156.610169,40.4363798 C183.803173,40.4363798 210,47.1700029 210,32.6900964 C210,18.21019 184.693003,0.5 157.5,0.5 C130.306997,0.5 105,18.21019 105,32.6900964 C105,47.1700029 129.417166,40.4363798 156.610169,40.4363798 Z" id="Oval-2" fill="#6C863F"></path>
                <path d="M67.9322034,97.0889087 C100.563807,97.0889087 132,105.318892 132,87.621229 C132,69.9235655 100.563807,47.5 67.9322034,47.5 C35.3005994,47.5 6,69.9235655 6,87.621229 C6,105.318892 35.3005994,97.0889087 67.9322034,97.0889087 Z" id="Oval-2" fill="#6C863F"></path>
                <path d="M213.661017,115.523248 C239.300134,115.523248 264,121.882781 264,108.207313 C264,94.5318461 240.139117,77.5 214.5,77.5 C188.860883,77.5 165,94.5318461 165,108.207313 C165,121.882781 188.021899,115.523248 213.661017,115.523248 Z" id="Oval-2" fill="#6C863F"></path>
                <path d="M-4.54747351e-13,168 C8,176 43,180 105,180 C167,180 202,176 210,168 L210,168 C210,199.480231 184.480231,225 153,225 L57,225 C25.5197693,225 -4.50892135e-13,199.480231 -4.54747351e-13,168 Z" id="Rectangle-2" fill="#CB7416"></path>
                <path d="M105,186 C162.989899,186 210,179.284271 210,171 C210,162.715729 162.989899,171 105,171 C47.0101013,171 0,162.715729 0,171 C0,179.284271 47.0101013,186 105,186 Z" id="Oval" fill="#4D3E13"></path>
            </g>
            <text id="bonsai" font-family="PTSerif-Bold, PT Serif" font-size="82" font-weight="bold" fill="#373737">
                <tspan x="0.653" y="312">bonsai</tspan>
            </text>
        </g>
    </g>
</svg>