<?xml version="1.0" encoding="UTF-8"?>
<svg width="751px" height="260px" viewBox="0 0 751 260" version="1.1" xmlns="http://www.w3.org/2000/svg" xmlns:xlink="http://www.w3.org/1999/xlink">
    <!-- Generator: Sketch 50 (54983) - http://www.bohemiancoding.com/sketch -->
    <title>Artboard</title>
    <desc>Created with Sketch.</desc>
    <defs></defs>
    <g id="Artboard" stroke="none" stroke-width="1" fill="none" fill-rule="evenodd">
        <g id="Group-2" transform="translate(73.000000, 51.000000)">
            <g id="Group">
                <path d="M83.8615836,87.3708701 C83.8615836,87.3708701 57.4679533,95.0724747 49.9696049,107.651559 C42.4712564,120.230643 38.9132402,128.50664 45.5198037,128.50664 C52.1263671,128.50664 94.5293475,128.334842 103.000953,128.50664 C103.427072,128.515282 106.931057,126.388812 96.8306276,121.499249 C93.031248,119.65999 85.7354162,118.310236 80.1642768,115.13963 C78.7819287,114.352919 79.2833767,112.990983 79.4007975,111.414526 C79.4859046,110.271904 79.7281484,108.235485 80.7220185,107.651559 C87.5273141,103.653261 95.3635577,99.2215039 102.29373,92.2332543 C103.711039,90.8040675 110.320481,86.7342147 113.077208,85.7192537 C124.208016,81.6211566 135.522405,77.9444926 147.023908,75.0220085 C151.787817,73.8115189 156.814062,74.056379 161.68271,73.3687979 C162.653388,73.2317126 159.680932,73.6449565 158.741305,73.3672036 L156.584275,71.713993 C154.304528,71.0401015 151.908421,70.6182727 149.529727,70.6442685 C143.646646,70.7085622 137.715688,70.9180654 131.931128,71.9834169 C122.773072,73.6700704 113.717791,76.0012617 104.863778,78.870466 C103.622042,79.2728593 102.652667,80.0013399 102.425531,78.7253916 C101.550523,73.8099977 103.439834,68.7344077 103.000953,63.7620021 C102.578774,58.9788249 109.188085,46.1757087 109.222907,41.5989582 C109.308417,30.3601603 112.359569,19.0947649 111.05365,7.93053466 C110.824541,5.97189101 106.906695,5.99698936 105.170841,6.95805782 C103.534575,7.86398878 103.630981,10.3881626 103.307952,12.2189981 C102.611992,16.1635004 102.102279,20.1713495 102.132998,24.1756805 C102.32158,48.758786 95.0164082,52.2647276 92.2817039,77.5440714 C91.9985629,80.1613998 88.3572223,76.1617691 87.4822321,75.0220085 C81.7636272,67.5729645 75.914234,60.2128503 70.5297775,52.5227206 C69.6197253,51.2229758 68.9774673,49.7019206 68.666888,48.1497632 C68.1501397,45.567251 68.5554597,42.8627523 68.0786072,40.2727008 C67.8604308,39.0876636 67.8201823,37.0396516 66.607905,36.9662796 C63.0125262,36.7486723 59.7187293,39.7052065 56.1201107,39.548923 C52.3817231,39.3865695 47.3008046,32.8146954 45.4635473,36.0480064 L43.012377,36.9088875 C42.1372877,38.4489201 44.9342482,42.4789652 45.5198037,43.0307089 C49.7364212,47.0038465 54.6274888,50.2327468 58.828453,54.2221637 C71.8479947,66.5860825 69.8814875,63.2348407 73.873013,71.1528261 C80.5320601,81.9648554 83.8615836,87.3708701 83.8615836,87.3708701 Z" id="Path-2" fill="#4D3E13"></path>
                <path d="M109.745763,28.3953245 C128.801466,28.3953245 147.159091,33.1238243 147.159091,22.9557122 C147.159091,12.7876001 129.425021,0.351111111 110.369318,0.351111111 C91.3136151,0.351111111 73.5795455,12.7876001 73.5795455,22.9557122 C73.5795455,33.1238243 90.6900596,28.3953245 109.745763,28.3953245 Z" id="Oval-2" fill="#6C863F"></path>
                <path d="M47.6040062,68.1779892 C70.4708499,68.1779892 92.5,73.9572667 92.5,61.5295741 C92.5,49.1018816 70.4708499,33.3555556 47.6040062,33.3555556 C24.7371624,33.3555556 4.20454545,49.1018816 4.20454545,61.5295741 C4.20454545,73.9572667 24.7371624,68.1779892 47.6040062,68.1779892 Z" id="Oval-2" fill="#6C863F"></path>
                <path d="M149.724576,81.1229917 C167.691382,81.1229917 185,85.588797 185,75.98558 C185,66.382363 168.279306,54.4222222 150.3125,54.4222222 C132.345694,54.4222222 115.625,66.382363 115.625,75.98558 C115.625,85.588797 131.75777,81.1229917 149.724576,81.1229917 Z" id="Oval-2" fill="#6C863F"></path>
                <path d="M-4.54747351e-13,117.973333 C5.60606061,123.591111 30.1325758,126.4 73.5795455,126.4 C117.026515,126.4 141.55303,123.591111 147.159091,117.973333 L147.159091,117.973333 C147.159091,140.079451 129.238542,158 107.132424,158 L40.0266667,158 C17.9205491,158 -4.52040132e-13,140.079451 -4.54747351e-13,117.973333 Z" id="Rectangle-2" fill="#CB7416"></path>
                <path d="M73.5795455,130.613333 C114.216406,130.613333 147.159091,125.897399 147.159091,120.08 C147.159091,114.262601 114.216406,120.08 73.5795455,120.08 C32.9426846,120.08 0,114.262601 0,120.08 C0,125.897399 32.9426846,130.613333 73.5795455,130.613333 Z" id="Oval" fill="#4D3E13"></path>
            </g>
            <text id="bonsai" font-family="PTSerif-Bold, PT Serif" font-size="100" font-weight="bold" fill="#FFFFFF">
                <tspan x="232.48" y="119">bonsai</tspan>
            </text>
        </g>
    </g>
</svg>